<?xml version="1.0" encoding="UTF-8" standalone="no"?>
<svg width="312px" height="78px" viewBox="0 0 312 78" version="1.1" xmlns="http://www.w3.org/2000/svg" xmlns:xlink="http://www.w3.org/1999/xlink" xmlns:sketch="http://www.bohemiancoding.com/sketch/ns">
    <!-- Generator: Sketch 3.0.4 (8053) - http://www.bohemiancoding.com/sketch -->
    <title>Logo</title>
    <desc>Created with Sketch.</desc>
    <defs></defs>
    <g id="Page-1" stroke="none" stroke-width="1" fill="none" fill-rule="evenodd" sketch:type="MSPage">
        <g id="Portrait-2" sketch:type="MSArtboardGroup" transform="translate(-47.000000, -58.000000)" fill="#2C3E50">
            <g id="Logo" sketch:type="MSLayerGroup" transform="translate(47.000000, 58.000000)">
                <g sketch:type="MSShapeGroup">
                    <path d="M91.6952781,49.0925398 L111.084624,78 L100.128356,78 L88.5979327,59.0325376 C87.8709119,57.8526783 87.0101337,56.3665267 86.0165082,54.5777077 L85.78721,54.5777077 C85.5943084,54.9193413 84.6971337,56.4054929 83.0911364,59.0325376 L71.3314148,78 L60.4897959,78 L80.5097119,49.3218059 L61.3505741,19.5 L72.3068421,19.5 L83.6643819,39.4941756 C84.505142,40.9803272 85.3286136,42.5036325 86.1311573,44.0649978 L86.3604555,44.0649978 L101.046459,19.5 L111.428571,19.5 L91.6952781,49.0925398 Z" id="Fill-2"></path>
                    <path d="M162.367347,76.6175646 L153.331063,76.6175646 L153.331063,67.4010239 L153.110836,67.4010239 C149.179965,74.4667034 143.39552,78 135.755752,78 C130.13735,78 125.738061,76.4448744 122.561379,73.3337094 C119.383822,70.2234582 117.795918,66.0953397 117.795918,60.9493541 C117.795918,49.9282464 124.002465,43.5158659 136.417306,41.7103852 L153.331063,39.2333314 C153.331063,29.2109031 149.456122,24.199232 141.707115,24.199232 C134.910676,24.199232 128.778412,26.6187224 123.30508,31.4567895 L123.30508,21.7788279 C128.850947,18.0929426 135.24189,16.25 142.477908,16.25 C155.736951,16.25 162.367347,23.5843087 162.367347,38.2538398 L162.367347,76.6175646 L162.367347,76.6175646 Z M152.816327,48.75 L139.628077,50.3907594 C135.57022,50.9052672 132.507558,51.8148435 130.444327,53.1179571 C128.379401,54.4210707 127.346939,56.7302309 127.346939,60.044672 C127.346939,62.4579587 128.298939,64.4287074 130.203786,65.9569182 C132.106939,67.4858946 134.643629,68.25 137.812163,68.25 C142.155451,68.25 145.741544,66.8741509 148.572134,64.1232184 C151.401878,61.3715203 152.816327,57.8886391 152.816327,53.6730437 L152.816327,48.75 L152.816327,48.75 Z" id="Fill-3"></path>
                    <path d="M216.382368,73.9093435 C212.154326,76.6367524 207.136775,78 201.332276,78 C193.484946,78 187.150982,75.2643677 182.332088,69.7912758 C177.511488,64.3190975 175.102041,57.2250932 175.102041,48.5074354 C175.102041,38.7920119 177.699913,30.9862315 182.896509,25.0919217 C188.089695,19.1966981 195.024742,16.25 203.696535,16.25 C208.534187,16.25 212.798891,17.2103038 216.489796,19.1299976 L216.489796,28.8070455 C212.40499,25.7351699 208.032005,24.199232 203.374252,24.199232 C197.748798,24.199232 193.13538,26.3592303 189.533999,30.6792267 C185.931764,34.9992232 184.131926,40.6733302 184.131926,47.7015477 C184.131926,54.6137248 185.825189,60.0658015 189.211716,64.0605191 C192.59739,68.0534092 197.139189,70.050768 202.837114,70.050768 C207.638957,70.050768 212.154326,68.3421399 216.382368,64.9239701 L216.382368,73.9093435" id="Fill-4"></path>
                    <path d="M257.877551,76.1491681 C255.818719,77.3836675 253.104574,78 249.730894,78 C240.183251,78 235.410274,72.2172967 235.410274,60.6537245 L235.410274,25.6144864 L226.040816,25.6144864 L226.040816,17.519619 L235.410274,17.519619 L235.410274,3.06423658 L244.141309,0 L244.141309,17.519619 L257.877551,17.519619 L257.877551,25.6144864 L244.141309,25.6144864 L244.141309,58.9771533 C244.141309,62.9466283 244.761999,65.7806573 246.005067,67.4764889 C247.247291,69.1723205 249.306122,70.0206949 252.180718,70.0206949 C254.381422,70.0206949 256.279803,69.3658416 257.877551,68.0552178 L257.877551,76.1491681" id="Fill-5"></path>
                    <path d="M312,76.6175646 L302.96459,76.6175646 L302.96459,67.4010239 L302.743489,67.4010239 C298.81087,74.4667034 293.026425,78 285.389279,78 C279.76913,78 275.370714,76.4448744 272.194032,73.3337094 C269.015602,70.2234582 267.428571,66.0953397 267.428571,60.9493541 C267.428571,49.9282464 273.634244,43.5158659 286.049959,41.7103852 L302.96459,39.2333314 C302.96459,29.2109031 299.086153,24.199232 291.338894,24.199232 C284.542455,24.199232 278.408443,26.6187224 272.93686,31.4567895 L272.93686,21.7788279 C278.482726,18.0929426 284.874543,16.25 292.111435,16.25 C305.366983,16.25 312,23.5843087 312,38.2538398 L312,76.6175646 L312,76.6175646 Z M302.44898,48.75 L289.259475,50.3907594 C285.203446,50.9052672 282.139192,51.8148435 280.07603,53.1179571 C278.010326,54.4210707 276.979592,56.7302309 276.979592,60.044672 C276.979592,62.4579587 277.929866,64.4287074 279.835497,65.9569182 C281.739434,67.4858946 284.275193,68.25 287.445315,68.25 C291.784224,68.25 295.373585,66.8741509 298.203235,64.1232184 C301.034578,61.3715203 302.44898,57.8886391 302.44898,53.6730437 L302.44898,48.75 L302.44898,48.75 Z" id="Fill-6"></path>
                    <path d="M50.9387755,49.486927 L9.69697954,49.486927 C9.84808485,56.0528099 11.5989158,61.1220443 14.9449483,64.6937165 C18.2909808,68.264475 22.8929065,70.050768 28.7498206,70.050768 C35.3278781,70.050768 41.3748048,67.8615312 46.8887913,63.4839713 L46.8887913,72.3551315 C41.7548302,76.1186817 34.966854,78 26.5248629,78 C18.2728844,78 11.7880236,75.3210174 7.07299515,69.963966 C2.35706184,64.6069146 0,57.0715908 0,47.3552536 C0,38.1770886 2.57512399,30.6984145 7.72899125,24.9192315 C12.8819537,19.1391347 19.2799515,16.25 26.9238894,16.25 C34.5678274,16.25 40.4799357,18.7453279 44.6638335,23.7378111 C48.8477314,28.7302943 50.9387755,35.6616592 50.9387755,44.5328194 L50.9387755,49.486927 Z M41.3877551,38.2967101 C41.349539,33.3901214 40.039273,29.5726984 37.4578669,26.843619 C34.8764609,24.1145397 31.2923374,22.75 26.7027666,22.75 C22.2660603,22.75 18.4990455,24.1835887 15.4026321,27.050766 C12.3043989,29.9187654 10.2771262,40.8696072 9.55102041,45.5 L41.3877551,38.2967101 Z" id="Fill-1"></path>
                </g>
            </g>
        </g>
    </g>
</svg>